<?xml version="1.0" encoding="UTF-8"?>
<svg id="Layer_2" data-name="Layer 2" xmlns="http://www.w3.org/2000/svg" viewBox="0 0 233.99 44.21">
  <defs>
    <style>
      .cls-1 {
        fill: #7659ff;
      }
    </style>
  </defs>
  <g id="Layer_1-2" data-name="Layer 1">
    <g>
      <path class="cls-1" d="M34.79,33.22h-10.35c.03-.06,.06-.13,.09-.19,2.63-5.64,4.55-9.45,4.69-10.22,.17-1.69-.9-2.53-3.21-2.53h-6.8c.08-.21,.19-.48,.31-.8,1.59-4.16,6.29-16.69,6.29-16.93,.51-1.69-.57-2.54-3.21-2.54h-6.03c-.69,0-1.3,.14-1.83,.42-.45,.24-.79,.64-.99,1.11-1.29,2.89-6.26,15.21-9.01,22.27-1.57,3.82-2.76,6.76-3.54,8.79-.79,2.04-1.18,3.17-1.18,3.42,0,.27,.04,.55,.14,.81,.42,1.14,1.33,1.71,2.74,1.71h3.16c-1.03,2.51-1.33,2.42-1.45,3.14v.34c.33,1.47,1.28,2.2,2.88,2.2h25.21c1.25,0,2.13-.43,2.64-1.27,3.08-8.08,1.83-4.4,2.7-7.18,.16-1.69-.91-2.54-3.23-2.54Z"/>
      <g>
        <path d="M47.89,8.74h4.17V31.19h11.34v3.99h-15.51V8.74Z"/>
        <path d="M76.88,32.96h-.22c-.54,.71-1.24,1.36-2.1,1.94-.86,.58-1.96,.87-3.29,.87-.96,0-1.86-.15-2.7-.46-.84-.31-1.56-.74-2.18-1.29-.62-.55-1.1-1.21-1.46-1.96-.36-.75-.54-1.58-.54-2.49,0-.96,.19-1.82,.57-2.58,.38-.76,.91-1.4,1.59-1.92,.68-.52,1.48-.92,2.42-1.2,.94-.28,1.94-.42,3.03-.42,1.21,0,2.22,.12,3.03,.35,.81,.23,1.43,.45,1.85,.65v-.7c0-.54-.12-1.05-.35-1.51-.23-.47-.55-.87-.96-1.2-.41-.33-.87-.59-1.38-.78s-1.06-.28-1.62-.28c-.91,0-1.73,.18-2.46,.54-.73,.36-1.37,.93-1.94,1.72l-3.25-2.14c.86-1.18,1.93-2.07,3.21-2.68,1.28-.6,2.73-.9,4.36-.9,2.68,0,4.76,.66,6.22,1.99,1.46,1.33,2.2,3.23,2.2,5.69v11h-4.02v-2.22Zm0-5.32c-.54-.32-1.14-.58-1.81-.78-.66-.2-1.43-.3-2.29-.3-1.28,0-2.3,.3-3.06,.89-.76,.59-1.14,1.31-1.14,2.14,0,.44,.1,.83,.3,1.16,.2,.33,.45,.62,.76,.87,.31,.25,.66,.43,1.07,.55,.41,.12,.82,.18,1.24,.18,.66,0,1.3-.13,1.9-.39,.6-.26,1.13-.6,1.57-1.03,.44-.43,.8-.93,1.07-1.5,.27-.57,.41-1.17,.41-1.81Z"/>
        <path d="M87.69,19.52h.22c.54-.86,1.31-1.58,2.31-2.16,1-.58,2.12-.87,3.38-.87,2.29,0,4,.68,5.13,2.05,1.13,1.37,1.7,3.18,1.7,5.45v11.19h-4.1v-10.63c0-1.58-.36-2.68-1.09-3.3-.73-.63-1.68-.94-2.86-.94-.71,0-1.34,.15-1.88,.44-.54,.3-1.01,.7-1.4,1.2-.39,.5-.69,1.08-.89,1.74-.2,.65-.3,1.34-.3,2.05v9.45h-4.1V17.08h3.88v2.44Z"/>
        <path d="M120.23,30.56c-.34,.71-.77,1.38-1.27,2.01-.5,.63-1.1,1.18-1.77,1.66-.68,.48-1.46,.86-2.34,1.13-.89,.27-1.86,.41-2.92,.41-1.38,0-2.65-.24-3.8-.72-1.16-.48-2.15-1.15-2.99-2.01-.84-.86-1.49-1.88-1.96-3.06-.47-1.18-.7-2.46-.7-3.84s.23-2.66,.7-3.84c.47-1.18,1.12-2.2,1.96-3.06,.84-.86,1.83-1.53,2.99-2.01,1.16-.48,2.42-.72,3.8-.72,1.06,0,2.02,.14,2.9,.41,.87,.27,1.65,.65,2.33,1.13,.68,.48,1.26,1.03,1.75,1.66,.49,.63,.89,1.29,1.18,1.98l-3.77,1.59c-.42-.94-1-1.66-1.74-2.18-.74-.52-1.67-.78-2.81-.78-.69,0-1.35,.14-1.98,.42-.63,.28-1.18,.68-1.66,1.18-.48,.5-.86,1.11-1.14,1.83-.28,.71-.42,1.51-.42,2.4s.14,1.69,.42,2.4c.28,.71,.66,1.32,1.14,1.83,.48,.5,1.03,.9,1.66,1.18,.63,.28,1.29,.42,1.98,.42,1.13,0,2.1-.26,2.9-.79,.8-.53,1.42-1.26,1.86-2.2l3.69,1.59Z"/>
        <path d="M138.84,30.86c-.76,1.4-1.85,2.57-3.25,3.51-1.4,.94-3.13,1.4-5.17,1.4-1.35,0-2.6-.24-3.75-.72s-2.14-1.15-2.97-2.01c-.84-.86-1.49-1.88-1.96-3.05-.47-1.17-.7-2.46-.7-3.86,0-1.3,.22-2.54,.66-3.71,.44-1.17,1.06-2.19,1.86-3.06,.8-.87,1.77-1.57,2.9-2.09,1.13-.52,2.39-.78,3.77-.78s2.65,.23,3.75,.7c1.09,.47,2.02,1.12,2.79,1.96,.76,.84,1.35,1.85,1.75,3.03,.41,1.18,.61,2.47,.61,3.88v.33c-.02,.12-.04,.23-.04,.33-.02,.1-.04,.2-.04,.3h-13.92c.07,.86,.28,1.61,.63,2.25,.34,.64,.77,1.17,1.27,1.59,.5,.42,1.06,.73,1.68,.92,.61,.2,1.22,.3,1.81,.3,1.18,0,2.15-.28,2.92-.85,.76-.57,1.39-1.27,1.88-2.1l3.51,1.74Zm-3.8-6.98c-.05-.37-.17-.78-.35-1.24-.18-.46-.47-.87-.85-1.26-.38-.38-.87-.71-1.48-.98-.6-.27-1.34-.41-2.2-.41-1.18,0-2.2,.35-3.05,1.05-.85,.7-1.42,1.64-1.72,2.82h9.64Z"/>
        <path d="M149.58,8.44c.69,0,1.3,.06,1.85,.18,.54,.12,1.02,.28,1.44,.48l-1.14,3.62c-.27-.12-.55-.22-.85-.3-.3-.07-.66-.11-1.11-.11-.71,0-1.32,.25-1.83,.74-.5,.49-.76,1.21-.76,2.14v1.88h4.62v3.62h-4.62v14.47h-4.1v-14.47h-3.32v-3.62h3.32v-2.18c0-1.01,.16-1.91,.48-2.71,.32-.8,.77-1.48,1.35-2.03,.58-.55,1.27-.98,2.07-1.27,.8-.3,1.67-.44,2.6-.44Z"/>
        <path d="M161.47,16.49c1.38,0,2.65,.24,3.8,.72,1.16,.48,2.15,1.15,2.99,2.01,.84,.86,1.49,1.88,1.96,3.06,.47,1.18,.7,2.46,.7,3.84s-.23,2.66-.7,3.84c-.47,1.18-1.12,2.2-1.96,3.06-.84,.86-1.83,1.53-2.99,2.01-1.16,.48-2.43,.72-3.8,.72s-2.65-.24-3.8-.72c-1.16-.48-2.15-1.15-2.99-2.01-.84-.86-1.49-1.88-1.96-3.06-.47-1.18-.7-2.46-.7-3.84s.23-2.66,.7-3.84c.47-1.18,1.12-2.2,1.96-3.06,.84-.86,1.83-1.53,2.99-2.01,1.16-.48,2.42-.72,3.8-.72Zm0,15.47c.69,0,1.35-.14,1.99-.41,.64-.27,1.21-.65,1.72-1.14,.5-.49,.9-1.1,1.2-1.83,.3-.73,.44-1.54,.44-2.46s-.15-1.73-.44-2.46c-.3-.73-.7-1.34-1.2-1.83-.5-.49-1.08-.87-1.72-1.14-.64-.27-1.31-.41-1.99-.41s-1.35,.14-1.99,.41c-.64,.27-1.21,.65-1.72,1.14-.5,.49-.9,1.1-1.2,1.83-.3,.73-.44,1.55-.44,2.46s.15,1.73,.44,2.46c.3,.73,.7,1.34,1.2,1.83,.5,.49,1.08,.87,1.72,1.14,.64,.27,1.3,.41,1.99,.41Z"/>
        <path d="M176.61,20.11h.22c.49-1.03,1.24-1.83,2.23-2.4,1-.57,2.1-.85,3.3-.85,.39,0,.68,.01,.87,.04,.18,.02,.38,.06,.57,.11v4.14c-.27-.1-.54-.17-.79-.2-.26-.04-.6-.06-1.02-.06-1.55,0-2.8,.47-3.75,1.42-.95,.95-1.42,2.2-1.42,3.75v9.42h-4.1V17.38h3.88v2.73Zm12.74,.59h-3.18v-3.62h3.18v-5.54h4.1v5.54h4.47v3.62h-4.47v8.27c0,.46,.05,.87,.15,1.25,.1,.38,.25,.7,.44,.95,.42,.48,.95,.72,1.59,.72,.39,0,.7-.03,.92-.09,.22-.06,.46-.15,.7-.28l1.26,3.62c-.52,.2-1.06,.35-1.62,.46-.57,.11-1.21,.17-1.92,.17-.86,0-1.62-.14-2.29-.41-.66-.28-1.24-.65-1.74-1.13-1.06-1.08-1.59-2.55-1.59-4.41v-9.11Z"/>
        <path d="M216.97,30.86c-.76,1.4-1.85,2.57-3.25,3.51-1.4,.94-3.13,1.4-5.17,1.4-1.35,0-2.6-.24-3.75-.72s-2.14-1.15-2.97-2.01c-.84-.86-1.49-1.88-1.96-3.05-.47-1.17-.7-2.46-.7-3.86,0-1.3,.22-2.54,.66-3.71,.44-1.17,1.06-2.19,1.86-3.06,.8-.87,1.77-1.57,2.9-2.09,1.13-.52,2.39-.78,3.77-.78s2.65,.23,3.75,.7c1.09,.47,2.02,1.12,2.79,1.96,.76,.84,1.35,1.85,1.75,3.03,.41,1.18,.61,2.47,.61,3.88v.33c-.02,.12-.04,.23-.04,.33-.02,.1-.04,.2-.04,.3h-13.92c.07,.86,.28,1.61,.63,2.25,.34,.64,.77,1.17,1.27,1.59,.5,.42,1.06,.73,1.68,.92,.61,.2,1.22,.3,1.81,.3,1.18,0,2.15-.28,2.92-.85,.76-.57,1.39-1.27,1.88-2.1l3.51,1.74Zm-3.8-6.98c-.05-.37-.17-.78-.35-1.24-.18-.46-.47-.87-.85-1.26-.38-.38-.87-.71-1.48-.98-.6-.27-1.34-.41-2.2-.41-1.18,0-2.2,.35-3.05,1.05-.85,.7-1.42,1.64-1.72,2.82h9.64Z"/>
        <path d="M226.5,35.77c-1.11,0-2.1-.15-2.99-.44-.89-.3-1.66-.68-2.33-1.16-.66-.48-1.22-1.03-1.68-1.64-.46-.62-.81-1.26-1.05-1.92l3.69-1.55c.42,1.06,1.02,1.84,1.81,2.34,.79,.5,1.64,.76,2.55,.76,1.03,0,1.85-.21,2.44-.63,.59-.42,.89-.89,.89-1.4s-.22-.97-.66-1.35c-.44-.38-1.28-.72-2.51-1.02l-2.58-.63c-.57-.12-1.14-.31-1.72-.57-.58-.26-1.11-.59-1.61-1-.49-.41-.89-.9-1.2-1.48-.31-.58-.46-1.26-.46-2.05,0-.89,.19-1.67,.57-2.36,.38-.69,.9-1.27,1.57-1.74,.66-.47,1.43-.82,2.31-1.07,.87-.25,1.8-.37,2.79-.37,.81,0,1.59,.09,2.34,.26,.75,.17,1.45,.43,2.09,.78,.64,.34,1.21,.78,1.72,1.31,.5,.53,.9,1.15,1.2,1.86l-3.62,1.51c-.35-.79-.89-1.36-1.62-1.72-.74-.36-1.49-.54-2.25-.54-.35,0-.7,.04-1.05,.13-.36,.09-.68,.21-.96,.37-.28,.16-.52,.36-.7,.61-.18,.25-.28,.52-.28,.81,0,.49,.22,.88,.65,1.16,.43,.28,1.09,.54,1.98,.76l2.77,.7c1.87,.47,3.24,1.18,4.12,2.12,.87,.95,1.31,2.06,1.31,3.34,0,.79-.18,1.53-.54,2.22-.36,.69-.87,1.3-1.53,1.85-.66,.54-1.46,.97-2.38,1.27-.92,.31-1.94,.46-3.05,.46Z"/>
      </g>
    </g>
  </g>
</svg>